%TF.GenerationSoftware,KiCad,Pcbnew,6.0.6*%
%TF.CreationDate,2022-09-07T18:25:10+01:00*%
%TF.ProjectId,Raspberry PI HAT,52617370-6265-4727-9279-205049204841,rev?*%
%TF.SameCoordinates,Original*%
%TF.FileFunction,Copper,L2,Bot*%
%TF.FilePolarity,Positive*%
%FSLAX46Y46*%
G04 Gerber Fmt 4.6, Leading zero omitted, Abs format (unit mm)*
G04 Created by KiCad (PCBNEW 6.0.6) date 2022-09-07 18:25:10*
%MOMM*%
%LPD*%
G01*
G04 APERTURE LIST*
%TA.AperFunction,ComponentPad*%
%ADD10R,1.700000X1.700000*%
%TD*%
%TA.AperFunction,ComponentPad*%
%ADD11O,1.700000X1.700000*%
%TD*%
%TA.AperFunction,ComponentPad*%
%ADD12C,2.000000*%
%TD*%
%TA.AperFunction,ViaPad*%
%ADD13C,0.800000*%
%TD*%
%TA.AperFunction,Conductor*%
%ADD14C,0.300000*%
%TD*%
G04 APERTURE END LIST*
D10*
%TO.P,U1,1,VCC*%
%TO.N,/3.3v*%
X112064800Y-79451200D03*
D11*
%TO.P,U1,2,IO*%
%TO.N,Net-(J1-Pad11)*%
X109524800Y-79451200D03*
%TO.P,U1,3,NC*%
%TO.N,unconnected-(U1-Pad3)*%
X106984800Y-79451200D03*
%TO.P,U1,4,GND*%
%TO.N,/GND*%
X104444800Y-79451200D03*
%TD*%
D10*
%TO.P,J1,1,3V3*%
%TO.N,/3.3v*%
X93820000Y-69189600D03*
D11*
%TO.P,J1,2,5V*%
%TO.N,unconnected-(J1-Pad2)*%
X93820000Y-66649600D03*
%TO.P,J1,3,SDA/GPIO2*%
%TO.N,unconnected-(J1-Pad3)*%
X96360000Y-69189600D03*
%TO.P,J1,4,5V*%
%TO.N,unconnected-(J1-Pad4)*%
X96360000Y-66649600D03*
%TO.P,J1,5,SCL/GPIO3*%
%TO.N,unconnected-(J1-Pad5)*%
X98900000Y-69189600D03*
%TO.P,J1,6,GND*%
%TO.N,/GND*%
X98900000Y-66649600D03*
%TO.P,J1,7,GCLK0/GPIO4*%
%TO.N,Net-(J1-Pad7)*%
X101440000Y-69189600D03*
%TO.P,J1,8,GPIO14/TXD*%
%TO.N,/button input*%
X101440000Y-66649600D03*
%TO.P,J1,9,GND*%
%TO.N,/GND*%
X103980000Y-69189600D03*
%TO.P,J1,10,GPIO15/RXD*%
%TO.N,unconnected-(J1-Pad10)*%
X103980000Y-66649600D03*
%TO.P,J1,11,GPIO17*%
%TO.N,Net-(J1-Pad11)*%
X106520000Y-69189600D03*
%TO.P,J1,12,GPIO18/PWM0*%
%TO.N,unconnected-(J1-Pad12)*%
X106520000Y-66649600D03*
%TO.P,J1,13,GPIO27*%
%TO.N,unconnected-(J1-Pad13)*%
X109060000Y-69189600D03*
%TO.P,J1,14,GND*%
%TO.N,unconnected-(J1-Pad14)*%
X109060000Y-66649600D03*
%TO.P,J1,15,GPIO22*%
%TO.N,unconnected-(J1-Pad15)*%
X111600000Y-69189600D03*
%TO.P,J1,16,GPIO23*%
%TO.N,unconnected-(J1-Pad16)*%
X111600000Y-66649600D03*
%TD*%
D12*
%TO.P,SW1,1,1*%
%TO.N,/3.3v*%
X92255200Y-80213200D03*
X98755200Y-80213200D03*
%TO.P,SW1,2,2*%
%TO.N,/button input*%
X98755200Y-75713200D03*
X92255200Y-75713200D03*
%TD*%
D13*
%TO.N,/GND*%
X105206800Y-68173600D03*
X109728000Y-73863200D03*
%TD*%
D14*
%TO.N,Net-(J1-Pad7)*%
X101440000Y-70553600D02*
X101440000Y-69189600D01*
X106527600Y-75641200D02*
X101440000Y-70553600D01*
%TD*%
%TA.AperFunction,Conductor*%
%TO.N,/GND*%
G36*
X114348021Y-64836502D02*
G01*
X114394514Y-64890158D01*
X114405900Y-64942500D01*
X114405900Y-81514802D01*
X114385898Y-81582923D01*
X114332242Y-81629416D01*
X114280167Y-81640802D01*
X104469224Y-81661588D01*
X99271367Y-81672601D01*
X99203205Y-81652743D01*
X99156599Y-81599186D01*
X99146346Y-81528934D01*
X99175702Y-81464290D01*
X99217851Y-81432406D01*
X99402953Y-81346091D01*
X99402956Y-81346089D01*
X99407934Y-81343768D01*
X99594339Y-81213247D01*
X99755247Y-81052339D01*
X99885768Y-80865934D01*
X99923633Y-80784734D01*
X99979616Y-80664678D01*
X99979617Y-80664676D01*
X99981939Y-80659696D01*
X99992934Y-80618664D01*
X100039411Y-80445207D01*
X100039411Y-80445205D01*
X100040835Y-80439892D01*
X100060668Y-80213200D01*
X100040835Y-79986508D01*
X100021858Y-79915683D01*
X99983362Y-79772014D01*
X99983361Y-79772012D01*
X99981939Y-79766704D01*
X99959771Y-79719166D01*
X103113057Y-79719166D01*
X103143365Y-79853646D01*
X103146445Y-79863475D01*
X103226570Y-80060803D01*
X103231213Y-80069994D01*
X103342494Y-80251588D01*
X103348577Y-80259899D01*
X103488013Y-80420867D01*
X103495380Y-80428083D01*
X103659234Y-80564116D01*
X103667681Y-80570031D01*
X103851556Y-80677479D01*
X103860842Y-80681929D01*
X104059801Y-80757903D01*
X104069699Y-80760779D01*
X104173050Y-80781806D01*
X104187099Y-80780610D01*
X104190800Y-80770265D01*
X104190800Y-80769717D01*
X104698800Y-80769717D01*
X104702864Y-80783559D01*
X104716278Y-80785593D01*
X104722984Y-80784734D01*
X104733062Y-80782592D01*
X104937055Y-80721391D01*
X104946642Y-80717633D01*
X105137895Y-80623939D01*
X105146745Y-80618664D01*
X105320128Y-80494992D01*
X105328000Y-80488339D01*
X105478852Y-80338012D01*
X105485530Y-80330165D01*
X105609803Y-80157220D01*
X105615113Y-80148383D01*
X105709470Y-79957467D01*
X105712819Y-79949009D01*
X105756493Y-79893036D01*
X105823496Y-79869559D01*
X105892555Y-79886035D01*
X105944397Y-79942642D01*
X105962169Y-79981193D01*
X105984169Y-80028914D01*
X106106205Y-80201591D01*
X106110339Y-80205618D01*
X106250527Y-80342183D01*
X106257665Y-80349137D01*
X106262461Y-80352342D01*
X106262464Y-80352344D01*
X106365016Y-80420867D01*
X106433477Y-80466611D01*
X106438785Y-80468892D01*
X106438786Y-80468892D01*
X106622450Y-80547800D01*
X106622453Y-80547801D01*
X106627753Y-80550078D01*
X106633382Y-80551352D01*
X106633383Y-80551352D01*
X106828350Y-80595469D01*
X106828353Y-80595469D01*
X106833986Y-80596744D01*
X106839757Y-80596971D01*
X106839759Y-80596971D01*
X106901789Y-80599408D01*
X107045270Y-80605046D01*
X107050979Y-80604218D01*
X107050983Y-80604218D01*
X107248815Y-80575533D01*
X107248819Y-80575532D01*
X107254530Y-80574704D01*
X107341379Y-80545223D01*
X107449283Y-80508595D01*
X107449288Y-80508593D01*
X107454755Y-80506737D01*
X107459798Y-80503913D01*
X107634195Y-80406246D01*
X107634199Y-80406243D01*
X107639242Y-80403419D01*
X107801812Y-80268212D01*
X107937019Y-80105642D01*
X107939843Y-80100599D01*
X107939846Y-80100595D01*
X108037513Y-79926198D01*
X108037514Y-79926196D01*
X108040337Y-79921155D01*
X108042193Y-79915688D01*
X108042195Y-79915683D01*
X108106447Y-79726400D01*
X108108304Y-79720930D01*
X108120394Y-79637550D01*
X108129890Y-79572060D01*
X108159460Y-79507515D01*
X108219232Y-79469203D01*
X108290229Y-79469287D01*
X108349909Y-79507742D01*
X108379325Y-79572358D01*
X108380315Y-79581895D01*
X108383596Y-79631949D01*
X108385017Y-79637545D01*
X108385018Y-79637550D01*
X108417820Y-79766704D01*
X108435645Y-79836890D01*
X108524169Y-80028914D01*
X108646205Y-80201591D01*
X108650339Y-80205618D01*
X108790527Y-80342183D01*
X108797665Y-80349137D01*
X108802461Y-80352342D01*
X108802464Y-80352344D01*
X108905016Y-80420867D01*
X108973477Y-80466611D01*
X108978785Y-80468892D01*
X108978786Y-80468892D01*
X109162450Y-80547800D01*
X109162453Y-80547801D01*
X109167753Y-80550078D01*
X109173382Y-80551352D01*
X109173383Y-80551352D01*
X109368350Y-80595469D01*
X109368353Y-80595469D01*
X109373986Y-80596744D01*
X109379757Y-80596971D01*
X109379759Y-80596971D01*
X109441789Y-80599408D01*
X109585270Y-80605046D01*
X109590979Y-80604218D01*
X109590983Y-80604218D01*
X109788815Y-80575533D01*
X109788819Y-80575532D01*
X109794530Y-80574704D01*
X109881379Y-80545223D01*
X109989283Y-80508595D01*
X109989288Y-80508593D01*
X109994755Y-80506737D01*
X109999798Y-80503913D01*
X110174195Y-80406246D01*
X110174199Y-80406243D01*
X110179242Y-80403419D01*
X110341812Y-80268212D01*
X110477019Y-80105642D01*
X110479843Y-80100599D01*
X110479846Y-80100595D01*
X110577513Y-79926198D01*
X110577514Y-79926196D01*
X110580337Y-79921155D01*
X110582193Y-79915688D01*
X110582195Y-79915683D01*
X110646447Y-79726400D01*
X110648304Y-79720930D01*
X110663604Y-79615411D01*
X110693174Y-79550865D01*
X110752946Y-79512553D01*
X110823943Y-79512637D01*
X110883623Y-79551092D01*
X110913039Y-79615708D01*
X110914300Y-79633491D01*
X110914300Y-80345846D01*
X110917418Y-80372046D01*
X110962861Y-80474353D01*
X110971094Y-80482572D01*
X110971095Y-80482573D01*
X110997163Y-80508595D01*
X111042087Y-80553441D01*
X111052724Y-80558144D01*
X111052726Y-80558145D01*
X111090182Y-80574704D01*
X111144473Y-80598706D01*
X111170154Y-80601700D01*
X112959446Y-80601700D01*
X112963150Y-80601259D01*
X112963153Y-80601259D01*
X112970546Y-80600379D01*
X112985646Y-80598582D01*
X113087953Y-80553139D01*
X113167041Y-80473913D01*
X113184505Y-80434412D01*
X113198065Y-80403738D01*
X113212306Y-80371527D01*
X113215300Y-80345846D01*
X113215300Y-78556554D01*
X113212182Y-78530354D01*
X113166739Y-78428047D01*
X113158244Y-78419566D01*
X113095745Y-78357177D01*
X113087513Y-78348959D01*
X113076876Y-78344256D01*
X113076874Y-78344255D01*
X113007798Y-78313717D01*
X112985127Y-78303694D01*
X112959446Y-78300700D01*
X111170154Y-78300700D01*
X111166450Y-78301141D01*
X111166447Y-78301141D01*
X111159054Y-78302021D01*
X111143954Y-78303818D01*
X111135314Y-78307656D01*
X111135313Y-78307656D01*
X111068931Y-78337142D01*
X111041647Y-78349261D01*
X110962559Y-78428487D01*
X110957856Y-78439124D01*
X110957855Y-78439126D01*
X110931535Y-78498662D01*
X110917294Y-78530873D01*
X110914300Y-78556554D01*
X110914300Y-79250311D01*
X110894298Y-79318432D01*
X110840642Y-79364925D01*
X110770368Y-79375029D01*
X110705788Y-79345535D01*
X110667404Y-79285809D01*
X110662829Y-79261840D01*
X110661410Y-79246397D01*
X110660881Y-79240640D01*
X110654228Y-79217048D01*
X110617208Y-79085787D01*
X110603486Y-79037131D01*
X110594492Y-79018892D01*
X110512519Y-78852669D01*
X110509965Y-78847490D01*
X110383451Y-78678067D01*
X110256036Y-78560286D01*
X110232422Y-78538457D01*
X110232420Y-78538455D01*
X110228181Y-78534537D01*
X110096441Y-78451415D01*
X110054234Y-78424784D01*
X110054233Y-78424784D01*
X110049354Y-78421705D01*
X109852960Y-78343352D01*
X109847303Y-78342227D01*
X109847297Y-78342225D01*
X109651242Y-78303228D01*
X109651240Y-78303228D01*
X109645575Y-78302101D01*
X109639800Y-78302025D01*
X109639796Y-78302025D01*
X109533776Y-78300637D01*
X109434146Y-78299333D01*
X109428449Y-78300312D01*
X109428448Y-78300312D01*
X109231450Y-78334162D01*
X109231449Y-78334162D01*
X109225753Y-78335141D01*
X109027375Y-78408327D01*
X109022414Y-78411279D01*
X109022413Y-78411279D01*
X108976353Y-78438682D01*
X108845656Y-78516438D01*
X108686681Y-78655855D01*
X108555776Y-78821908D01*
X108553087Y-78827019D01*
X108553085Y-78827022D01*
X108539592Y-78852669D01*
X108457323Y-79009036D01*
X108394620Y-79210973D01*
X108393941Y-79216710D01*
X108379888Y-79335439D01*
X108352017Y-79400737D01*
X108293269Y-79440601D01*
X108222294Y-79442374D01*
X108161628Y-79405495D01*
X108130530Y-79341671D01*
X108129290Y-79332158D01*
X108125032Y-79285809D01*
X108120881Y-79240640D01*
X108114228Y-79217048D01*
X108077208Y-79085787D01*
X108063486Y-79037131D01*
X108054492Y-79018892D01*
X107972519Y-78852669D01*
X107969965Y-78847490D01*
X107843451Y-78678067D01*
X107716036Y-78560286D01*
X107692422Y-78538457D01*
X107692420Y-78538455D01*
X107688181Y-78534537D01*
X107556441Y-78451415D01*
X107514234Y-78424784D01*
X107514233Y-78424784D01*
X107509354Y-78421705D01*
X107312960Y-78343352D01*
X107307303Y-78342227D01*
X107307297Y-78342225D01*
X107111242Y-78303228D01*
X107111240Y-78303228D01*
X107105575Y-78302101D01*
X107099800Y-78302025D01*
X107099796Y-78302025D01*
X106993776Y-78300637D01*
X106894146Y-78299333D01*
X106888449Y-78300312D01*
X106888448Y-78300312D01*
X106691450Y-78334162D01*
X106691449Y-78334162D01*
X106685753Y-78335141D01*
X106487375Y-78408327D01*
X106482414Y-78411279D01*
X106482413Y-78411279D01*
X106436353Y-78438682D01*
X106305656Y-78516438D01*
X106146681Y-78655855D01*
X106015776Y-78821908D01*
X106013087Y-78827019D01*
X106013085Y-78827022D01*
X105938955Y-78967920D01*
X105889536Y-79018892D01*
X105820403Y-79035055D01*
X105753507Y-79011276D01*
X105711897Y-78959494D01*
X105647771Y-78812014D01*
X105642905Y-78802939D01*
X105527226Y-78624126D01*
X105520936Y-78615957D01*
X105377606Y-78458440D01*
X105370073Y-78451415D01*
X105202939Y-78319422D01*
X105194352Y-78313717D01*
X105007917Y-78210799D01*
X104998505Y-78206569D01*
X104797759Y-78135480D01*
X104787788Y-78132846D01*
X104716637Y-78120172D01*
X104703340Y-78121632D01*
X104698800Y-78136189D01*
X104698800Y-80769717D01*
X104190800Y-80769717D01*
X104190800Y-79723315D01*
X104186325Y-79708076D01*
X104184935Y-79706871D01*
X104177252Y-79705200D01*
X103128025Y-79705200D01*
X103114494Y-79709173D01*
X103113057Y-79719166D01*
X99959771Y-79719166D01*
X99921713Y-79637550D01*
X99888091Y-79565447D01*
X99888089Y-79565444D01*
X99885768Y-79560466D01*
X99755247Y-79374061D01*
X99594339Y-79213153D01*
X99554679Y-79185383D01*
X103109189Y-79185383D01*
X103110712Y-79193807D01*
X103123092Y-79197200D01*
X104172685Y-79197200D01*
X104187924Y-79192725D01*
X104189129Y-79191335D01*
X104190800Y-79183652D01*
X104190800Y-78134302D01*
X104186882Y-78120958D01*
X104172606Y-78118971D01*
X104134124Y-78124860D01*
X104124088Y-78127251D01*
X103921668Y-78193412D01*
X103912159Y-78197409D01*
X103723263Y-78295742D01*
X103714538Y-78301236D01*
X103544233Y-78429105D01*
X103536526Y-78435948D01*
X103389390Y-78589917D01*
X103382904Y-78597927D01*
X103262898Y-78773849D01*
X103257800Y-78782823D01*
X103168138Y-78975983D01*
X103164575Y-78985670D01*
X103109189Y-79185383D01*
X99554679Y-79185383D01*
X99407934Y-79082632D01*
X99402956Y-79080311D01*
X99402953Y-79080309D01*
X99206678Y-78988784D01*
X99206676Y-78988783D01*
X99201696Y-78986461D01*
X99196388Y-78985039D01*
X99196386Y-78985038D01*
X98987207Y-78928989D01*
X98987205Y-78928989D01*
X98981892Y-78927565D01*
X98755200Y-78907732D01*
X98528508Y-78927565D01*
X98523195Y-78928989D01*
X98523193Y-78928989D01*
X98314014Y-78985038D01*
X98314012Y-78985039D01*
X98308704Y-78986461D01*
X98303724Y-78988783D01*
X98303722Y-78988784D01*
X98107447Y-79080309D01*
X98107444Y-79080311D01*
X98102466Y-79082632D01*
X97916061Y-79213153D01*
X97755153Y-79374061D01*
X97624632Y-79560466D01*
X97622311Y-79565444D01*
X97622309Y-79565447D01*
X97588687Y-79637550D01*
X97528461Y-79766704D01*
X97527039Y-79772012D01*
X97527038Y-79772014D01*
X97488542Y-79915683D01*
X97469565Y-79986508D01*
X97449732Y-80213200D01*
X97469565Y-80439892D01*
X97470989Y-80445205D01*
X97470989Y-80445207D01*
X97517467Y-80618664D01*
X97528461Y-80659696D01*
X97530783Y-80664676D01*
X97530784Y-80664678D01*
X97586768Y-80784734D01*
X97624632Y-80865934D01*
X97755153Y-81052339D01*
X97916061Y-81213247D01*
X98102466Y-81343768D01*
X98107444Y-81346089D01*
X98107447Y-81346091D01*
X98297216Y-81434582D01*
X98350501Y-81481500D01*
X98369962Y-81549777D01*
X98349420Y-81617737D01*
X98295397Y-81663802D01*
X98244233Y-81674777D01*
X92737879Y-81686443D01*
X92669716Y-81666585D01*
X92623110Y-81613028D01*
X92612857Y-81542776D01*
X92642213Y-81478132D01*
X92694518Y-81442042D01*
X92696389Y-81441361D01*
X92701696Y-81439939D01*
X92792676Y-81397514D01*
X92902953Y-81346091D01*
X92902956Y-81346089D01*
X92907934Y-81343768D01*
X93094339Y-81213247D01*
X93255247Y-81052339D01*
X93385768Y-80865934D01*
X93423633Y-80784734D01*
X93479616Y-80664678D01*
X93479617Y-80664676D01*
X93481939Y-80659696D01*
X93492934Y-80618664D01*
X93539411Y-80445207D01*
X93539411Y-80445205D01*
X93540835Y-80439892D01*
X93560668Y-80213200D01*
X93540835Y-79986508D01*
X93521858Y-79915683D01*
X93483362Y-79772014D01*
X93483361Y-79772012D01*
X93481939Y-79766704D01*
X93421713Y-79637550D01*
X93388091Y-79565447D01*
X93388089Y-79565444D01*
X93385768Y-79560466D01*
X93255247Y-79374061D01*
X93094339Y-79213153D01*
X92907934Y-79082632D01*
X92902956Y-79080311D01*
X92902953Y-79080309D01*
X92706678Y-78988784D01*
X92706676Y-78988783D01*
X92701696Y-78986461D01*
X92696388Y-78985039D01*
X92696386Y-78985038D01*
X92487207Y-78928989D01*
X92487205Y-78928989D01*
X92481892Y-78927565D01*
X92255200Y-78907732D01*
X92028508Y-78927565D01*
X92023195Y-78928989D01*
X92023193Y-78928989D01*
X91814014Y-78985038D01*
X91814012Y-78985039D01*
X91808704Y-78986461D01*
X91803724Y-78988783D01*
X91803722Y-78988784D01*
X91607447Y-79080309D01*
X91607444Y-79080311D01*
X91602466Y-79082632D01*
X91416061Y-79213153D01*
X91255153Y-79374061D01*
X91211817Y-79435952D01*
X91161213Y-79508222D01*
X91105756Y-79552551D01*
X91035137Y-79559860D01*
X90971776Y-79527830D01*
X90935791Y-79466628D01*
X90932000Y-79435952D01*
X90932000Y-76490448D01*
X90952002Y-76422327D01*
X91005658Y-76375834D01*
X91075932Y-76365730D01*
X91140512Y-76395224D01*
X91161213Y-76418178D01*
X91255153Y-76552339D01*
X91416061Y-76713247D01*
X91602466Y-76843768D01*
X91607444Y-76846089D01*
X91607447Y-76846091D01*
X91803722Y-76937616D01*
X91808704Y-76939939D01*
X91814012Y-76941361D01*
X91814014Y-76941362D01*
X92023193Y-76997411D01*
X92023195Y-76997411D01*
X92028508Y-76998835D01*
X92255200Y-77018668D01*
X92481892Y-76998835D01*
X92487205Y-76997411D01*
X92487207Y-76997411D01*
X92696386Y-76941362D01*
X92696388Y-76941361D01*
X92701696Y-76939939D01*
X92706678Y-76937616D01*
X92902953Y-76846091D01*
X92902956Y-76846089D01*
X92907934Y-76843768D01*
X93094339Y-76713247D01*
X93255247Y-76552339D01*
X93385768Y-76365934D01*
X93481939Y-76159696D01*
X93500179Y-76091625D01*
X93539411Y-75945207D01*
X93539411Y-75945205D01*
X93540835Y-75939892D01*
X93560668Y-75713200D01*
X97449732Y-75713200D01*
X97469565Y-75939892D01*
X97470989Y-75945205D01*
X97470989Y-75945207D01*
X97510222Y-76091625D01*
X97528461Y-76159696D01*
X97624632Y-76365934D01*
X97755153Y-76552339D01*
X97916061Y-76713247D01*
X98102466Y-76843768D01*
X98107444Y-76846089D01*
X98107447Y-76846091D01*
X98303722Y-76937616D01*
X98308704Y-76939939D01*
X98314012Y-76941361D01*
X98314014Y-76941362D01*
X98523193Y-76997411D01*
X98523195Y-76997411D01*
X98528508Y-76998835D01*
X98755200Y-77018668D01*
X98981892Y-76998835D01*
X98987205Y-76997411D01*
X98987207Y-76997411D01*
X99196386Y-76941362D01*
X99196388Y-76941361D01*
X99201696Y-76939939D01*
X99206678Y-76937616D01*
X99402953Y-76846091D01*
X99402956Y-76846089D01*
X99407934Y-76843768D01*
X99594339Y-76713247D01*
X99755247Y-76552339D01*
X99885768Y-76365934D01*
X99981939Y-76159696D01*
X100000179Y-76091625D01*
X100039411Y-75945207D01*
X100039411Y-75945205D01*
X100040835Y-75939892D01*
X100060668Y-75713200D01*
X100040835Y-75486508D01*
X99981939Y-75266704D01*
X99885768Y-75060466D01*
X99755247Y-74874061D01*
X99594339Y-74713153D01*
X99407934Y-74582632D01*
X99402956Y-74580311D01*
X99402953Y-74580309D01*
X99206678Y-74488784D01*
X99206676Y-74488783D01*
X99201696Y-74486461D01*
X99196388Y-74485039D01*
X99196386Y-74485038D01*
X98987207Y-74428989D01*
X98987205Y-74428989D01*
X98981892Y-74427565D01*
X98755200Y-74407732D01*
X98528508Y-74427565D01*
X98523195Y-74428989D01*
X98523193Y-74428989D01*
X98314014Y-74485038D01*
X98314012Y-74485039D01*
X98308704Y-74486461D01*
X98303724Y-74488783D01*
X98303722Y-74488784D01*
X98107447Y-74580309D01*
X98107444Y-74580311D01*
X98102466Y-74582632D01*
X97916061Y-74713153D01*
X97755153Y-74874061D01*
X97624632Y-75060466D01*
X97528461Y-75266704D01*
X97469565Y-75486508D01*
X97449732Y-75713200D01*
X93560668Y-75713200D01*
X93540835Y-75486508D01*
X93481939Y-75266704D01*
X93385768Y-75060466D01*
X93255247Y-74874061D01*
X93094339Y-74713153D01*
X92907934Y-74582632D01*
X92902956Y-74580311D01*
X92902953Y-74580309D01*
X92706678Y-74488784D01*
X92706676Y-74488783D01*
X92701696Y-74486461D01*
X92696388Y-74485039D01*
X92696386Y-74485038D01*
X92487207Y-74428989D01*
X92487205Y-74428989D01*
X92481892Y-74427565D01*
X92255200Y-74407732D01*
X92028508Y-74427565D01*
X92023195Y-74428989D01*
X92023193Y-74428989D01*
X91814014Y-74485038D01*
X91814012Y-74485039D01*
X91808704Y-74486461D01*
X91803724Y-74488783D01*
X91803722Y-74488784D01*
X91607447Y-74580309D01*
X91607444Y-74580311D01*
X91602466Y-74582632D01*
X91416061Y-74713153D01*
X91255153Y-74874061D01*
X91251994Y-74878573D01*
X91161213Y-75008222D01*
X91105756Y-75052551D01*
X91035137Y-75059860D01*
X90971776Y-75027830D01*
X90935791Y-74966628D01*
X90932000Y-74935952D01*
X90932000Y-70612000D01*
X90441870Y-70612000D01*
X90377094Y-70593253D01*
X90377015Y-70593409D01*
X90371739Y-70590732D01*
X90237933Y-70522846D01*
X90237931Y-70522845D01*
X90232656Y-70520169D01*
X90226971Y-70518524D01*
X90226969Y-70518523D01*
X90082854Y-70476816D01*
X90082851Y-70476815D01*
X90077162Y-70475169D01*
X90038079Y-70471488D01*
X89983000Y-70466300D01*
X89977559Y-70465387D01*
X89975378Y-70464517D01*
X89969085Y-70463900D01*
X89963432Y-70463900D01*
X89951617Y-70463345D01*
X89929905Y-70461300D01*
X89928995Y-70461177D01*
X89928598Y-70461177D01*
X89924850Y-70460824D01*
X89916000Y-70459264D01*
X89900563Y-70461986D01*
X89878683Y-70463900D01*
X85927200Y-70463900D01*
X85859079Y-70443898D01*
X85812586Y-70390242D01*
X85801200Y-70337900D01*
X85801200Y-67403656D01*
X86624321Y-67403656D01*
X86624496Y-67408108D01*
X86626629Y-67462400D01*
X86633076Y-67626483D01*
X86634692Y-67667625D01*
X86682154Y-67927500D01*
X86696556Y-67970668D01*
X86759131Y-68158227D01*
X86765759Y-68178095D01*
X86883839Y-68414410D01*
X87034037Y-68631730D01*
X87037053Y-68634992D01*
X87037058Y-68634999D01*
X87172110Y-68781096D01*
X87213359Y-68825719D01*
X87216813Y-68828531D01*
X87414767Y-68989691D01*
X87414771Y-68989694D01*
X87418224Y-68992505D01*
X87422046Y-68994806D01*
X87639178Y-69125530D01*
X87644546Y-69128762D01*
X87680284Y-69143895D01*
X87883711Y-69230036D01*
X87883715Y-69230037D01*
X87887809Y-69231771D01*
X87892101Y-69232909D01*
X87892104Y-69232910D01*
X88138862Y-69298337D01*
X88138866Y-69298338D01*
X88143159Y-69299476D01*
X88147568Y-69299998D01*
X88147574Y-69299999D01*
X88293326Y-69317249D01*
X88405501Y-69330526D01*
X88669602Y-69324302D01*
X88693640Y-69320301D01*
X88925800Y-69281659D01*
X88925804Y-69281658D01*
X88930190Y-69280928D01*
X88934431Y-69279587D01*
X88934434Y-69279586D01*
X89177821Y-69202613D01*
X89177823Y-69202612D01*
X89182067Y-69201270D01*
X89420208Y-69086916D01*
X89616733Y-68955602D01*
X89636152Y-68942627D01*
X89636156Y-68942624D01*
X89639860Y-68940149D01*
X89643177Y-68937178D01*
X89643181Y-68937175D01*
X89833323Y-68766870D01*
X89833324Y-68766869D01*
X89836641Y-68763898D01*
X90006625Y-68561677D01*
X90146420Y-68337523D01*
X90253237Y-68095908D01*
X90315288Y-67875891D01*
X90323733Y-67845948D01*
X90323734Y-67845944D01*
X90324944Y-67841653D01*
X90360112Y-67579831D01*
X90361253Y-67543510D01*
X90363701Y-67465622D01*
X90363701Y-67465617D01*
X90363802Y-67462400D01*
X90345144Y-67198886D01*
X90334062Y-67147409D01*
X90290479Y-66944977D01*
X90290479Y-66944975D01*
X90289543Y-66940630D01*
X90198108Y-66692785D01*
X90170044Y-66640774D01*
X90158486Y-66619354D01*
X92664967Y-66619354D01*
X92678796Y-66830349D01*
X92680217Y-66835945D01*
X92680218Y-66835950D01*
X92702784Y-66924800D01*
X92730845Y-67035290D01*
X92819369Y-67227314D01*
X92941405Y-67399991D01*
X93092865Y-67547537D01*
X93097661Y-67550742D01*
X93097664Y-67550744D01*
X93200216Y-67619267D01*
X93268677Y-67665011D01*
X93273985Y-67667292D01*
X93273986Y-67667292D01*
X93457650Y-67746200D01*
X93457653Y-67746201D01*
X93462953Y-67748478D01*
X93468582Y-67749752D01*
X93468583Y-67749752D01*
X93647368Y-67790207D01*
X93709395Y-67824750D01*
X93742899Y-67887343D01*
X93737245Y-67958114D01*
X93694226Y-68014594D01*
X93627501Y-68038849D01*
X93619560Y-68039100D01*
X92925354Y-68039100D01*
X92921650Y-68039541D01*
X92921647Y-68039541D01*
X92914254Y-68040421D01*
X92899154Y-68042218D01*
X92890514Y-68046056D01*
X92890513Y-68046056D01*
X92824131Y-68075542D01*
X92796847Y-68087661D01*
X92717759Y-68166887D01*
X92713056Y-68177524D01*
X92713055Y-68177526D01*
X92686735Y-68237062D01*
X92672494Y-68269273D01*
X92669500Y-68294954D01*
X92669500Y-70084246D01*
X92672618Y-70110446D01*
X92676456Y-70119086D01*
X92676456Y-70119087D01*
X92713140Y-70201674D01*
X92718061Y-70212753D01*
X92726294Y-70220972D01*
X92726295Y-70220973D01*
X92752363Y-70246995D01*
X92797287Y-70291841D01*
X92807924Y-70296544D01*
X92807926Y-70296545D01*
X92845382Y-70313104D01*
X92899673Y-70337106D01*
X92925354Y-70340100D01*
X94714646Y-70340100D01*
X94718350Y-70339659D01*
X94718353Y-70339659D01*
X94725746Y-70338779D01*
X94740846Y-70336982D01*
X94753569Y-70331331D01*
X94832518Y-70296263D01*
X94843153Y-70291539D01*
X94922241Y-70212313D01*
X94967506Y-70109927D01*
X94970500Y-70084246D01*
X94970500Y-69400273D01*
X94990502Y-69332152D01*
X95044158Y-69285659D01*
X95114432Y-69275555D01*
X95179012Y-69305049D01*
X95217396Y-69364775D01*
X95218658Y-69370384D01*
X95218796Y-69370349D01*
X95270845Y-69575290D01*
X95359369Y-69767314D01*
X95481405Y-69939991D01*
X95485539Y-69944018D01*
X95625727Y-70080583D01*
X95632865Y-70087537D01*
X95637661Y-70090742D01*
X95637664Y-70090744D01*
X95740216Y-70159267D01*
X95808677Y-70205011D01*
X95813985Y-70207292D01*
X95813986Y-70207292D01*
X95997650Y-70286200D01*
X95997653Y-70286201D01*
X96002953Y-70288478D01*
X96008582Y-70289752D01*
X96008583Y-70289752D01*
X96203550Y-70333869D01*
X96203553Y-70333869D01*
X96209186Y-70335144D01*
X96214957Y-70335371D01*
X96214959Y-70335371D01*
X96276989Y-70337808D01*
X96420470Y-70343446D01*
X96426179Y-70342618D01*
X96426183Y-70342618D01*
X96624015Y-70313933D01*
X96624019Y-70313932D01*
X96629730Y-70313104D01*
X96716579Y-70283623D01*
X96824483Y-70246995D01*
X96824488Y-70246993D01*
X96829955Y-70245137D01*
X96834998Y-70242313D01*
X97009395Y-70144646D01*
X97009399Y-70144643D01*
X97014442Y-70141819D01*
X97177012Y-70006612D01*
X97312219Y-69844042D01*
X97315043Y-69838999D01*
X97315046Y-69838995D01*
X97412713Y-69664598D01*
X97412714Y-69664596D01*
X97415537Y-69659555D01*
X97417393Y-69654088D01*
X97417395Y-69654083D01*
X97481647Y-69464800D01*
X97483504Y-69459330D01*
X97496406Y-69370349D01*
X97505090Y-69310460D01*
X97534660Y-69245915D01*
X97594432Y-69207603D01*
X97665429Y-69207687D01*
X97725109Y-69246142D01*
X97754525Y-69310758D01*
X97755515Y-69320295D01*
X97758796Y-69370349D01*
X97760217Y-69375945D01*
X97760218Y-69375950D01*
X97782784Y-69464800D01*
X97810845Y-69575290D01*
X97899369Y-69767314D01*
X98021405Y-69939991D01*
X98025539Y-69944018D01*
X98165727Y-70080583D01*
X98172865Y-70087537D01*
X98177661Y-70090742D01*
X98177664Y-70090744D01*
X98280216Y-70159267D01*
X98348677Y-70205011D01*
X98353985Y-70207292D01*
X98353986Y-70207292D01*
X98537650Y-70286200D01*
X98537653Y-70286201D01*
X98542953Y-70288478D01*
X98548582Y-70289752D01*
X98548583Y-70289752D01*
X98743550Y-70333869D01*
X98743553Y-70333869D01*
X98749186Y-70335144D01*
X98754957Y-70335371D01*
X98754959Y-70335371D01*
X98816989Y-70337808D01*
X98960470Y-70343446D01*
X98966179Y-70342618D01*
X98966183Y-70342618D01*
X99164015Y-70313933D01*
X99164019Y-70313932D01*
X99169730Y-70313104D01*
X99256579Y-70283623D01*
X99364483Y-70246995D01*
X99364488Y-70246993D01*
X99369955Y-70245137D01*
X99374998Y-70242313D01*
X99549395Y-70144646D01*
X99549399Y-70144643D01*
X99554442Y-70141819D01*
X99717012Y-70006612D01*
X99852219Y-69844042D01*
X99855043Y-69838999D01*
X99855046Y-69838995D01*
X99952713Y-69664598D01*
X99952714Y-69664596D01*
X99955537Y-69659555D01*
X99957393Y-69654088D01*
X99957395Y-69654083D01*
X100021647Y-69464800D01*
X100023504Y-69459330D01*
X100036406Y-69370349D01*
X100045090Y-69310460D01*
X100074660Y-69245915D01*
X100134432Y-69207603D01*
X100205429Y-69207687D01*
X100265109Y-69246142D01*
X100294525Y-69310758D01*
X100295515Y-69320295D01*
X100298796Y-69370349D01*
X100300217Y-69375945D01*
X100300218Y-69375950D01*
X100322784Y-69464800D01*
X100350845Y-69575290D01*
X100439369Y-69767314D01*
X100561405Y-69939991D01*
X100565539Y-69944018D01*
X100705727Y-70080583D01*
X100712865Y-70087537D01*
X100717661Y-70090742D01*
X100717664Y-70090744D01*
X100820216Y-70159267D01*
X100888677Y-70205011D01*
X100893985Y-70207292D01*
X100893986Y-70207292D01*
X100913237Y-70215563D01*
X100967930Y-70260830D01*
X100989500Y-70331331D01*
X100989500Y-70519380D01*
X100988627Y-70534189D01*
X100984636Y-70567910D01*
X100986328Y-70577174D01*
X100986328Y-70577175D01*
X100995172Y-70625601D01*
X100995822Y-70629504D01*
X101004551Y-70687562D01*
X101007679Y-70694075D01*
X101008975Y-70701173D01*
X101036025Y-70753247D01*
X101037768Y-70756737D01*
X101063191Y-70809679D01*
X101068077Y-70814965D01*
X101068110Y-70815013D01*
X101071421Y-70821388D01*
X101075725Y-70826428D01*
X101112952Y-70863655D01*
X101116381Y-70867220D01*
X101155146Y-70909156D01*
X101161505Y-70912849D01*
X101167663Y-70918366D01*
X106232984Y-75983687D01*
X106314417Y-76043834D01*
X106442231Y-76088719D01*
X106451636Y-76089089D01*
X106451638Y-76089089D01*
X106513295Y-76091511D01*
X106577594Y-76094038D01*
X106708537Y-76059319D01*
X106728365Y-76046953D01*
X106815489Y-75992618D01*
X106815490Y-75992618D01*
X106823482Y-75987633D01*
X106912267Y-75885317D01*
X106916072Y-75876710D01*
X106916074Y-75876707D01*
X106963236Y-75770027D01*
X106963237Y-75770025D01*
X106967042Y-75761417D01*
X106982964Y-75626890D01*
X106958625Y-75493627D01*
X106896179Y-75373412D01*
X106891875Y-75368372D01*
X101937068Y-70413565D01*
X101903042Y-70351253D01*
X101908107Y-70280438D01*
X101950654Y-70223602D01*
X101964597Y-70214536D01*
X102089395Y-70144646D01*
X102089399Y-70144643D01*
X102094442Y-70141819D01*
X102257012Y-70006612D01*
X102392219Y-69844042D01*
X102488931Y-69671351D01*
X102539667Y-69621691D01*
X102609198Y-69607344D01*
X102675449Y-69632865D01*
X102715607Y-69685515D01*
X102761770Y-69799203D01*
X102766413Y-69808394D01*
X102877694Y-69989988D01*
X102883777Y-69998299D01*
X103023213Y-70159267D01*
X103030580Y-70166483D01*
X103194434Y-70302516D01*
X103202881Y-70308431D01*
X103386756Y-70415879D01*
X103396042Y-70420329D01*
X103595001Y-70496303D01*
X103604899Y-70499179D01*
X103708250Y-70520206D01*
X103722299Y-70519010D01*
X103726000Y-70508665D01*
X103726000Y-69061600D01*
X103746002Y-68993479D01*
X103799658Y-68946986D01*
X103852000Y-68935600D01*
X104108000Y-68935600D01*
X104176121Y-68955602D01*
X104222614Y-69009258D01*
X104234000Y-69061600D01*
X104234000Y-70508117D01*
X104238064Y-70521959D01*
X104251478Y-70523993D01*
X104258184Y-70523134D01*
X104268262Y-70520992D01*
X104472255Y-70459791D01*
X104481842Y-70456033D01*
X104673095Y-70362339D01*
X104681945Y-70357064D01*
X104855328Y-70233392D01*
X104863200Y-70226739D01*
X105014052Y-70076412D01*
X105020730Y-70068565D01*
X105145003Y-69895620D01*
X105150313Y-69886783D01*
X105244670Y-69695867D01*
X105248019Y-69687409D01*
X105291693Y-69631436D01*
X105358696Y-69607959D01*
X105427755Y-69624435D01*
X105479597Y-69681042D01*
X105516951Y-69762069D01*
X105519369Y-69767314D01*
X105641405Y-69939991D01*
X105645539Y-69944018D01*
X105785727Y-70080583D01*
X105792865Y-70087537D01*
X105797661Y-70090742D01*
X105797664Y-70090744D01*
X105900216Y-70159267D01*
X105968677Y-70205011D01*
X105973985Y-70207292D01*
X105973986Y-70207292D01*
X106157650Y-70286200D01*
X106157653Y-70286201D01*
X106162953Y-70288478D01*
X106168582Y-70289752D01*
X106168583Y-70289752D01*
X106363550Y-70333869D01*
X106363553Y-70333869D01*
X106369186Y-70335144D01*
X106374957Y-70335371D01*
X106374959Y-70335371D01*
X106436989Y-70337808D01*
X106580470Y-70343446D01*
X106586179Y-70342618D01*
X106586183Y-70342618D01*
X106784015Y-70313933D01*
X106784019Y-70313932D01*
X106789730Y-70313104D01*
X106876579Y-70283623D01*
X106984483Y-70246995D01*
X106984488Y-70246993D01*
X106989955Y-70245137D01*
X106994998Y-70242313D01*
X107169395Y-70144646D01*
X107169399Y-70144643D01*
X107174442Y-70141819D01*
X107337012Y-70006612D01*
X107472219Y-69844042D01*
X107475043Y-69838999D01*
X107475046Y-69838995D01*
X107572713Y-69664598D01*
X107572714Y-69664596D01*
X107575537Y-69659555D01*
X107577393Y-69654088D01*
X107577395Y-69654083D01*
X107641647Y-69464800D01*
X107643504Y-69459330D01*
X107656406Y-69370349D01*
X107665090Y-69310460D01*
X107694660Y-69245915D01*
X107754432Y-69207603D01*
X107825429Y-69207687D01*
X107885109Y-69246142D01*
X107914525Y-69310758D01*
X107915515Y-69320295D01*
X107918796Y-69370349D01*
X107920217Y-69375945D01*
X107920218Y-69375950D01*
X107942784Y-69464800D01*
X107970845Y-69575290D01*
X108059369Y-69767314D01*
X108181405Y-69939991D01*
X108185539Y-69944018D01*
X108325727Y-70080583D01*
X108332865Y-70087537D01*
X108337661Y-70090742D01*
X108337664Y-70090744D01*
X108440216Y-70159267D01*
X108508677Y-70205011D01*
X108513985Y-70207292D01*
X108513986Y-70207292D01*
X108697650Y-70286200D01*
X108697653Y-70286201D01*
X108702953Y-70288478D01*
X108708582Y-70289752D01*
X108708583Y-70289752D01*
X108903550Y-70333869D01*
X108903553Y-70333869D01*
X108909186Y-70335144D01*
X108914957Y-70335371D01*
X108914959Y-70335371D01*
X108976989Y-70337808D01*
X109120470Y-70343446D01*
X109126179Y-70342618D01*
X109126183Y-70342618D01*
X109324015Y-70313933D01*
X109324019Y-70313932D01*
X109329730Y-70313104D01*
X109416579Y-70283623D01*
X109524483Y-70246995D01*
X109524488Y-70246993D01*
X109529955Y-70245137D01*
X109534998Y-70242313D01*
X109709395Y-70144646D01*
X109709399Y-70144643D01*
X109714442Y-70141819D01*
X109877012Y-70006612D01*
X110012219Y-69844042D01*
X110015043Y-69838999D01*
X110015046Y-69838995D01*
X110112713Y-69664598D01*
X110112714Y-69664596D01*
X110115537Y-69659555D01*
X110117393Y-69654088D01*
X110117395Y-69654083D01*
X110181647Y-69464800D01*
X110183504Y-69459330D01*
X110196406Y-69370349D01*
X110205090Y-69310460D01*
X110234660Y-69245915D01*
X110294432Y-69207603D01*
X110365429Y-69207687D01*
X110425109Y-69246142D01*
X110454525Y-69310758D01*
X110455515Y-69320295D01*
X110458796Y-69370349D01*
X110460217Y-69375945D01*
X110460218Y-69375950D01*
X110482784Y-69464800D01*
X110510845Y-69575290D01*
X110599369Y-69767314D01*
X110721405Y-69939991D01*
X110725539Y-69944018D01*
X110865727Y-70080583D01*
X110872865Y-70087537D01*
X110877661Y-70090742D01*
X110877664Y-70090744D01*
X110980216Y-70159267D01*
X111048677Y-70205011D01*
X111053985Y-70207292D01*
X111053986Y-70207292D01*
X111237650Y-70286200D01*
X111237653Y-70286201D01*
X111242953Y-70288478D01*
X111248582Y-70289752D01*
X111248583Y-70289752D01*
X111443550Y-70333869D01*
X111443553Y-70333869D01*
X111449186Y-70335144D01*
X111454957Y-70335371D01*
X111454959Y-70335371D01*
X111516989Y-70337808D01*
X111660470Y-70343446D01*
X111666179Y-70342618D01*
X111666183Y-70342618D01*
X111864015Y-70313933D01*
X111864019Y-70313932D01*
X111869730Y-70313104D01*
X111956579Y-70283623D01*
X112064483Y-70246995D01*
X112064488Y-70246993D01*
X112069955Y-70245137D01*
X112074998Y-70242313D01*
X112249395Y-70144646D01*
X112249399Y-70144643D01*
X112254442Y-70141819D01*
X112417012Y-70006612D01*
X112552219Y-69844042D01*
X112555043Y-69838999D01*
X112555046Y-69838995D01*
X112652713Y-69664598D01*
X112652714Y-69664596D01*
X112655537Y-69659555D01*
X112657393Y-69654088D01*
X112657395Y-69654083D01*
X112721647Y-69464800D01*
X112723504Y-69459330D01*
X112737243Y-69364581D01*
X112753314Y-69253740D01*
X112753314Y-69253738D01*
X112753846Y-69250070D01*
X112755429Y-69189600D01*
X112736081Y-68979040D01*
X112678686Y-68775531D01*
X112672950Y-68763898D01*
X112587719Y-68591069D01*
X112585165Y-68585890D01*
X112518228Y-68496251D01*
X112462104Y-68421091D01*
X112462103Y-68421090D01*
X112458651Y-68416467D01*
X112331236Y-68298686D01*
X112307622Y-68276857D01*
X112307620Y-68276855D01*
X112303381Y-68272937D01*
X112153066Y-68178095D01*
X112129434Y-68163184D01*
X112129433Y-68163184D01*
X112124554Y-68160105D01*
X111928160Y-68081752D01*
X111922503Y-68080627D01*
X111922497Y-68080625D01*
X111729407Y-68042218D01*
X111725234Y-68041388D01*
X111662324Y-68008481D01*
X111627192Y-67946786D01*
X111630992Y-67875891D01*
X111672517Y-67818305D01*
X111731734Y-67793113D01*
X111864015Y-67773933D01*
X111864019Y-67773932D01*
X111869730Y-67773104D01*
X111948987Y-67746200D01*
X112064483Y-67706995D01*
X112064488Y-67706993D01*
X112069955Y-67705137D01*
X112074998Y-67702313D01*
X112249395Y-67604646D01*
X112249399Y-67604643D01*
X112254442Y-67601819D01*
X112417012Y-67466612D01*
X112552219Y-67304042D01*
X112555043Y-67298999D01*
X112555046Y-67298995D01*
X112652713Y-67124598D01*
X112652714Y-67124596D01*
X112655537Y-67119555D01*
X112657393Y-67114088D01*
X112657395Y-67114083D01*
X112716274Y-66940630D01*
X112723504Y-66919330D01*
X112737243Y-66824581D01*
X112753314Y-66713740D01*
X112753314Y-66713738D01*
X112753846Y-66710070D01*
X112755429Y-66649600D01*
X112736081Y-66439040D01*
X112678686Y-66235531D01*
X112669692Y-66217292D01*
X112587719Y-66051069D01*
X112585165Y-66045890D01*
X112458651Y-65876467D01*
X112343682Y-65770191D01*
X112307622Y-65736857D01*
X112307620Y-65736855D01*
X112303381Y-65732937D01*
X112209764Y-65673869D01*
X112129434Y-65623184D01*
X112129433Y-65623184D01*
X112124554Y-65620105D01*
X111928160Y-65541752D01*
X111922503Y-65540627D01*
X111922497Y-65540625D01*
X111726442Y-65501628D01*
X111726440Y-65501628D01*
X111720775Y-65500501D01*
X111715000Y-65500425D01*
X111714996Y-65500425D01*
X111608976Y-65499037D01*
X111509346Y-65497733D01*
X111503649Y-65498712D01*
X111503648Y-65498712D01*
X111306650Y-65532562D01*
X111306649Y-65532562D01*
X111300953Y-65533541D01*
X111102575Y-65606727D01*
X111097614Y-65609679D01*
X111097613Y-65609679D01*
X110985329Y-65676481D01*
X110920856Y-65714838D01*
X110761881Y-65854255D01*
X110630976Y-66020308D01*
X110628287Y-66025419D01*
X110628285Y-66025422D01*
X110610334Y-66059541D01*
X110532523Y-66207436D01*
X110469820Y-66409373D01*
X110469141Y-66415110D01*
X110455088Y-66533839D01*
X110427217Y-66599137D01*
X110368469Y-66639001D01*
X110297494Y-66640774D01*
X110236828Y-66603895D01*
X110205730Y-66540071D01*
X110204490Y-66530558D01*
X110196610Y-66444797D01*
X110196081Y-66439040D01*
X110138686Y-66235531D01*
X110129692Y-66217292D01*
X110047719Y-66051069D01*
X110045165Y-66045890D01*
X109918651Y-65876467D01*
X109803682Y-65770191D01*
X109767622Y-65736857D01*
X109767620Y-65736855D01*
X109763381Y-65732937D01*
X109669764Y-65673869D01*
X109589434Y-65623184D01*
X109589433Y-65623184D01*
X109584554Y-65620105D01*
X109388160Y-65541752D01*
X109382503Y-65540627D01*
X109382497Y-65540625D01*
X109186442Y-65501628D01*
X109186440Y-65501628D01*
X109180775Y-65500501D01*
X109175000Y-65500425D01*
X109174996Y-65500425D01*
X109068976Y-65499037D01*
X108969346Y-65497733D01*
X108963649Y-65498712D01*
X108963648Y-65498712D01*
X108766650Y-65532562D01*
X108766649Y-65532562D01*
X108760953Y-65533541D01*
X108562575Y-65606727D01*
X108557614Y-65609679D01*
X108557613Y-65609679D01*
X108445329Y-65676481D01*
X108380856Y-65714838D01*
X108221881Y-65854255D01*
X108090976Y-66020308D01*
X108088287Y-66025419D01*
X108088285Y-66025422D01*
X108070334Y-66059541D01*
X107992523Y-66207436D01*
X107929820Y-66409373D01*
X107929141Y-66415110D01*
X107915088Y-66533839D01*
X107887217Y-66599137D01*
X107828469Y-66639001D01*
X107757494Y-66640774D01*
X107696828Y-66603895D01*
X107665730Y-66540071D01*
X107664490Y-66530558D01*
X107656610Y-66444797D01*
X107656081Y-66439040D01*
X107598686Y-66235531D01*
X107589692Y-66217292D01*
X107507719Y-66051069D01*
X107505165Y-66045890D01*
X107378651Y-65876467D01*
X107263682Y-65770191D01*
X107227622Y-65736857D01*
X107227620Y-65736855D01*
X107223381Y-65732937D01*
X107129764Y-65673869D01*
X107049434Y-65623184D01*
X107049433Y-65623184D01*
X107044554Y-65620105D01*
X106848160Y-65541752D01*
X106842503Y-65540627D01*
X106842497Y-65540625D01*
X106646442Y-65501628D01*
X106646440Y-65501628D01*
X106640775Y-65500501D01*
X106635000Y-65500425D01*
X106634996Y-65500425D01*
X106528976Y-65499037D01*
X106429346Y-65497733D01*
X106423649Y-65498712D01*
X106423648Y-65498712D01*
X106226650Y-65532562D01*
X106226649Y-65532562D01*
X106220953Y-65533541D01*
X106022575Y-65606727D01*
X106017614Y-65609679D01*
X106017613Y-65609679D01*
X105905329Y-65676481D01*
X105840856Y-65714838D01*
X105681881Y-65854255D01*
X105550976Y-66020308D01*
X105548287Y-66025419D01*
X105548285Y-66025422D01*
X105530334Y-66059541D01*
X105452523Y-66207436D01*
X105389820Y-66409373D01*
X105389141Y-66415110D01*
X105375088Y-66533839D01*
X105347217Y-66599137D01*
X105288469Y-66639001D01*
X105217494Y-66640774D01*
X105156828Y-66603895D01*
X105125730Y-66540071D01*
X105124490Y-66530558D01*
X105116610Y-66444797D01*
X105116081Y-66439040D01*
X105058686Y-66235531D01*
X105049692Y-66217292D01*
X104967719Y-66051069D01*
X104965165Y-66045890D01*
X104838651Y-65876467D01*
X104723682Y-65770191D01*
X104687622Y-65736857D01*
X104687620Y-65736855D01*
X104683381Y-65732937D01*
X104589764Y-65673869D01*
X104509434Y-65623184D01*
X104509433Y-65623184D01*
X104504554Y-65620105D01*
X104308160Y-65541752D01*
X104302503Y-65540627D01*
X104302497Y-65540625D01*
X104106442Y-65501628D01*
X104106440Y-65501628D01*
X104100775Y-65500501D01*
X104095000Y-65500425D01*
X104094996Y-65500425D01*
X103988976Y-65499037D01*
X103889346Y-65497733D01*
X103883649Y-65498712D01*
X103883648Y-65498712D01*
X103686650Y-65532562D01*
X103686649Y-65532562D01*
X103680953Y-65533541D01*
X103482575Y-65606727D01*
X103477614Y-65609679D01*
X103477613Y-65609679D01*
X103365329Y-65676481D01*
X103300856Y-65714838D01*
X103141881Y-65854255D01*
X103010976Y-66020308D01*
X103008287Y-66025419D01*
X103008285Y-66025422D01*
X102990334Y-66059541D01*
X102912523Y-66207436D01*
X102849820Y-66409373D01*
X102849141Y-66415110D01*
X102835088Y-66533839D01*
X102807217Y-66599137D01*
X102748469Y-66639001D01*
X102677494Y-66640774D01*
X102616828Y-66603895D01*
X102585730Y-66540071D01*
X102584490Y-66530558D01*
X102576610Y-66444797D01*
X102576081Y-66439040D01*
X102518686Y-66235531D01*
X102509692Y-66217292D01*
X102427719Y-66051069D01*
X102425165Y-66045890D01*
X102298651Y-65876467D01*
X102183682Y-65770191D01*
X102147622Y-65736857D01*
X102147620Y-65736855D01*
X102143381Y-65732937D01*
X102049764Y-65673869D01*
X101969434Y-65623184D01*
X101969433Y-65623184D01*
X101964554Y-65620105D01*
X101768160Y-65541752D01*
X101762503Y-65540627D01*
X101762497Y-65540625D01*
X101566442Y-65501628D01*
X101566440Y-65501628D01*
X101560775Y-65500501D01*
X101555000Y-65500425D01*
X101554996Y-65500425D01*
X101448976Y-65499037D01*
X101349346Y-65497733D01*
X101343649Y-65498712D01*
X101343648Y-65498712D01*
X101146650Y-65532562D01*
X101146649Y-65532562D01*
X101140953Y-65533541D01*
X100942575Y-65606727D01*
X100937614Y-65609679D01*
X100937613Y-65609679D01*
X100825329Y-65676481D01*
X100760856Y-65714838D01*
X100601881Y-65854255D01*
X100470976Y-66020308D01*
X100468287Y-66025419D01*
X100468285Y-66025422D01*
X100394155Y-66166320D01*
X100344736Y-66217292D01*
X100275603Y-66233455D01*
X100208707Y-66209676D01*
X100167097Y-66157894D01*
X100102971Y-66010414D01*
X100098105Y-66001339D01*
X99982426Y-65822526D01*
X99976136Y-65814357D01*
X99832806Y-65656840D01*
X99825273Y-65649815D01*
X99658139Y-65517822D01*
X99649552Y-65512117D01*
X99463117Y-65409199D01*
X99453705Y-65404969D01*
X99252959Y-65333880D01*
X99242988Y-65331246D01*
X99171837Y-65318572D01*
X99158540Y-65320032D01*
X99154000Y-65334589D01*
X99154000Y-66777600D01*
X99133998Y-66845721D01*
X99080342Y-66892214D01*
X99028000Y-66903600D01*
X98772000Y-66903600D01*
X98703879Y-66883598D01*
X98657386Y-66829942D01*
X98646000Y-66777600D01*
X98646000Y-65332702D01*
X98642082Y-65319358D01*
X98627806Y-65317371D01*
X98589324Y-65323260D01*
X98579288Y-65325651D01*
X98376868Y-65391812D01*
X98367359Y-65395809D01*
X98178463Y-65494142D01*
X98169738Y-65499636D01*
X97999433Y-65627505D01*
X97991726Y-65634348D01*
X97844590Y-65788317D01*
X97838104Y-65796327D01*
X97718098Y-65972249D01*
X97713000Y-65981223D01*
X97630033Y-66159960D01*
X97583209Y-66213327D01*
X97514965Y-66232908D01*
X97446970Y-66212484D01*
X97402739Y-66162638D01*
X97347721Y-66051073D01*
X97347719Y-66051069D01*
X97345165Y-66045890D01*
X97218651Y-65876467D01*
X97103682Y-65770191D01*
X97067622Y-65736857D01*
X97067620Y-65736855D01*
X97063381Y-65732937D01*
X96969764Y-65673869D01*
X96889434Y-65623184D01*
X96889433Y-65623184D01*
X96884554Y-65620105D01*
X96688160Y-65541752D01*
X96682503Y-65540627D01*
X96682497Y-65540625D01*
X96486442Y-65501628D01*
X96486440Y-65501628D01*
X96480775Y-65500501D01*
X96475000Y-65500425D01*
X96474996Y-65500425D01*
X96368976Y-65499037D01*
X96269346Y-65497733D01*
X96263649Y-65498712D01*
X96263648Y-65498712D01*
X96066650Y-65532562D01*
X96066649Y-65532562D01*
X96060953Y-65533541D01*
X95862575Y-65606727D01*
X95857614Y-65609679D01*
X95857613Y-65609679D01*
X95745329Y-65676481D01*
X95680856Y-65714838D01*
X95521881Y-65854255D01*
X95390976Y-66020308D01*
X95388287Y-66025419D01*
X95388285Y-66025422D01*
X95370334Y-66059541D01*
X95292523Y-66207436D01*
X95229820Y-66409373D01*
X95229141Y-66415110D01*
X95215088Y-66533839D01*
X95187217Y-66599137D01*
X95128469Y-66639001D01*
X95057494Y-66640774D01*
X94996828Y-66603895D01*
X94965730Y-66540071D01*
X94964490Y-66530558D01*
X94956610Y-66444797D01*
X94956081Y-66439040D01*
X94898686Y-66235531D01*
X94889692Y-66217292D01*
X94807719Y-66051069D01*
X94805165Y-66045890D01*
X94678651Y-65876467D01*
X94563682Y-65770191D01*
X94527622Y-65736857D01*
X94527620Y-65736855D01*
X94523381Y-65732937D01*
X94429764Y-65673869D01*
X94349434Y-65623184D01*
X94349433Y-65623184D01*
X94344554Y-65620105D01*
X94148160Y-65541752D01*
X94142503Y-65540627D01*
X94142497Y-65540625D01*
X93946442Y-65501628D01*
X93946440Y-65501628D01*
X93940775Y-65500501D01*
X93935000Y-65500425D01*
X93934996Y-65500425D01*
X93828976Y-65499037D01*
X93729346Y-65497733D01*
X93723649Y-65498712D01*
X93723648Y-65498712D01*
X93526650Y-65532562D01*
X93526649Y-65532562D01*
X93520953Y-65533541D01*
X93322575Y-65606727D01*
X93317614Y-65609679D01*
X93317613Y-65609679D01*
X93205329Y-65676481D01*
X93140856Y-65714838D01*
X92981881Y-65854255D01*
X92850976Y-66020308D01*
X92848287Y-66025419D01*
X92848285Y-66025422D01*
X92830334Y-66059541D01*
X92752523Y-66207436D01*
X92689820Y-66409373D01*
X92664967Y-66619354D01*
X90158486Y-66619354D01*
X90074777Y-66464212D01*
X90072664Y-66460296D01*
X89915713Y-66247801D01*
X89909113Y-66241096D01*
X89733518Y-66062722D01*
X89730387Y-66059541D01*
X89726847Y-66056840D01*
X89726841Y-66056834D01*
X89523925Y-65901973D01*
X89523921Y-65901970D01*
X89520384Y-65899271D01*
X89460508Y-65865739D01*
X89293783Y-65772369D01*
X89293778Y-65772366D01*
X89289893Y-65770191D01*
X89285735Y-65768583D01*
X89285730Y-65768580D01*
X89047670Y-65676481D01*
X89047664Y-65676479D01*
X89043515Y-65674874D01*
X89039183Y-65673870D01*
X89039180Y-65673869D01*
X88965711Y-65656840D01*
X88786164Y-65615223D01*
X88522976Y-65592429D01*
X88518541Y-65592673D01*
X88518537Y-65592673D01*
X88263645Y-65606700D01*
X88263638Y-65606701D01*
X88259202Y-65606945D01*
X88130630Y-65632520D01*
X88004476Y-65657613D01*
X88004471Y-65657614D01*
X88000104Y-65658483D01*
X87995904Y-65659958D01*
X87995900Y-65659959D01*
X87755060Y-65744535D01*
X87755052Y-65744538D01*
X87750853Y-65746013D01*
X87746900Y-65748066D01*
X87746894Y-65748069D01*
X87653995Y-65796327D01*
X87516422Y-65867791D01*
X87512807Y-65870374D01*
X87512801Y-65870378D01*
X87376767Y-65967590D01*
X87301488Y-66021385D01*
X87298268Y-66024457D01*
X87153417Y-66162638D01*
X87110340Y-66203731D01*
X86946792Y-66411191D01*
X86944555Y-66415043D01*
X86816341Y-66635778D01*
X86816338Y-66635784D01*
X86814107Y-66639625D01*
X86812437Y-66643748D01*
X86737021Y-66829942D01*
X86714932Y-66884476D01*
X86651247Y-67140858D01*
X86624321Y-67403656D01*
X85801200Y-67403656D01*
X85801200Y-65124029D01*
X85821202Y-65055908D01*
X85845986Y-65027695D01*
X85884527Y-64995203D01*
X85937674Y-64950398D01*
X85958861Y-64935950D01*
X86065558Y-64878144D01*
X86089237Y-64868285D01*
X86205422Y-64833287D01*
X86230606Y-64828427D01*
X86273256Y-64824635D01*
X86331941Y-64819419D01*
X86344765Y-64818935D01*
X86353423Y-64819050D01*
X86364254Y-64821109D01*
X86375137Y-64819339D01*
X86380328Y-64819408D01*
X86388703Y-64818717D01*
X87013518Y-64816501D01*
X87013965Y-64816500D01*
X114279900Y-64816500D01*
X114348021Y-64836502D01*
G37*
%TD.AperFunction*%
%TA.AperFunction,Conductor*%
G36*
X105285429Y-66667687D02*
G01*
X105345109Y-66706142D01*
X105374525Y-66770758D01*
X105375515Y-66780295D01*
X105378796Y-66830349D01*
X105380217Y-66835945D01*
X105380218Y-66835950D01*
X105402784Y-66924800D01*
X105430845Y-67035290D01*
X105519369Y-67227314D01*
X105641405Y-67399991D01*
X105792865Y-67547537D01*
X105797661Y-67550742D01*
X105797664Y-67550744D01*
X105900216Y-67619267D01*
X105968677Y-67665011D01*
X105973985Y-67667292D01*
X105973986Y-67667292D01*
X106157650Y-67746200D01*
X106157653Y-67746201D01*
X106162953Y-67748478D01*
X106168582Y-67749752D01*
X106168583Y-67749752D01*
X106363550Y-67793869D01*
X106363553Y-67793869D01*
X106369186Y-67795144D01*
X106374958Y-67795371D01*
X106380687Y-67796125D01*
X106380327Y-67798857D01*
X106436604Y-67817816D01*
X106480950Y-67873259D01*
X106488282Y-67943876D01*
X106456271Y-68007247D01*
X106395081Y-68043251D01*
X106385705Y-68045232D01*
X106345635Y-68052117D01*
X106226650Y-68072562D01*
X106226649Y-68072562D01*
X106220953Y-68073541D01*
X106022575Y-68146727D01*
X106017614Y-68149679D01*
X106017613Y-68149679D01*
X105971553Y-68177082D01*
X105840856Y-68254838D01*
X105681881Y-68394255D01*
X105550976Y-68560308D01*
X105548287Y-68565419D01*
X105548285Y-68565422D01*
X105474155Y-68706320D01*
X105424736Y-68757292D01*
X105355603Y-68773455D01*
X105288707Y-68749676D01*
X105247097Y-68697894D01*
X105182971Y-68550414D01*
X105178105Y-68541339D01*
X105062426Y-68362526D01*
X105056136Y-68354357D01*
X104912806Y-68196840D01*
X104905273Y-68189815D01*
X104738139Y-68057822D01*
X104729552Y-68052117D01*
X104543117Y-67949199D01*
X104533705Y-67944969D01*
X104482178Y-67926722D01*
X104424642Y-67885128D01*
X104398726Y-67819030D01*
X104412660Y-67749414D01*
X104462672Y-67698015D01*
X104516937Y-67667625D01*
X104634442Y-67601819D01*
X104797012Y-67466612D01*
X104932219Y-67304042D01*
X104935043Y-67298999D01*
X104935046Y-67298995D01*
X105032713Y-67124598D01*
X105032714Y-67124596D01*
X105035537Y-67119555D01*
X105037393Y-67114088D01*
X105037395Y-67114083D01*
X105096274Y-66940630D01*
X105103504Y-66919330D01*
X105116406Y-66830349D01*
X105125090Y-66770460D01*
X105154660Y-66705915D01*
X105214432Y-66667603D01*
X105285429Y-66667687D01*
G37*
%TD.AperFunction*%
%TD*%
M02*
