%TF.GenerationSoftware,KiCad,Pcbnew,6.0.6*%
%TF.CreationDate,2022-09-07T18:25:10+01:00*%
%TF.ProjectId,Raspberry PI HAT,52617370-6265-4727-9279-205049204841,rev?*%
%TF.SameCoordinates,Original*%
%TF.FileFunction,Legend,Top*%
%TF.FilePolarity,Positive*%
%FSLAX46Y46*%
G04 Gerber Fmt 4.6, Leading zero omitted, Abs format (unit mm)*
G04 Created by KiCad (PCBNEW 6.0.6) date 2022-09-07 18:25:10*
%MOMM*%
%LPD*%
G01*
G04 APERTURE LIST*
%ADD10C,0.110000*%
%ADD11C,0.150000*%
%ADD12C,0.075000*%
%ADD13C,0.120000*%
G04 APERTURE END LIST*
D10*
%TO.C,U1*%
X113456761Y-79210247D02*
X113456761Y-79566438D01*
X113477714Y-79608342D01*
X113498666Y-79629295D01*
X113540571Y-79650247D01*
X113624380Y-79650247D01*
X113666285Y-79629295D01*
X113687238Y-79608342D01*
X113708190Y-79566438D01*
X113708190Y-79210247D01*
X114148190Y-79650247D02*
X113896761Y-79650247D01*
X114022476Y-79650247D02*
X114022476Y-79210247D01*
X113980571Y-79273104D01*
X113938666Y-79315009D01*
X113896761Y-79335961D01*
%TO.C,R3*%
X107368666Y-74367047D02*
X107222000Y-74157523D01*
X107117238Y-74367047D02*
X107117238Y-73927047D01*
X107284857Y-73927047D01*
X107326761Y-73948000D01*
X107347714Y-73968952D01*
X107368666Y-74010857D01*
X107368666Y-74073714D01*
X107347714Y-74115619D01*
X107326761Y-74136571D01*
X107284857Y-74157523D01*
X107117238Y-74157523D01*
X107515333Y-73927047D02*
X107787714Y-73927047D01*
X107641047Y-74094666D01*
X107703904Y-74094666D01*
X107745809Y-74115619D01*
X107766761Y-74136571D01*
X107787714Y-74178476D01*
X107787714Y-74283238D01*
X107766761Y-74325142D01*
X107745809Y-74346095D01*
X107703904Y-74367047D01*
X107578190Y-74367047D01*
X107536285Y-74346095D01*
X107515333Y-74325142D01*
%TO.C,D1*%
X111638438Y-74316247D02*
X111638438Y-73876247D01*
X111743200Y-73876247D01*
X111806057Y-73897200D01*
X111847961Y-73939104D01*
X111868914Y-73981009D01*
X111889866Y-74064819D01*
X111889866Y-74127676D01*
X111868914Y-74211485D01*
X111847961Y-74253390D01*
X111806057Y-74295295D01*
X111743200Y-74316247D01*
X111638438Y-74316247D01*
X112308914Y-74316247D02*
X112057485Y-74316247D01*
X112183200Y-74316247D02*
X112183200Y-73876247D01*
X112141295Y-73939104D01*
X112099390Y-73981009D01*
X112057485Y-74001961D01*
D11*
%TO.C,J1*%
X90942380Y-68252933D02*
X91656666Y-68252933D01*
X91799523Y-68300552D01*
X91894761Y-68395790D01*
X91942380Y-68538647D01*
X91942380Y-68633885D01*
X91942380Y-67252933D02*
X91942380Y-67824361D01*
X91942380Y-67538647D02*
X90942380Y-67538647D01*
X91085238Y-67633885D01*
X91180476Y-67729123D01*
X91228095Y-67824361D01*
D12*
%TO.C,SW1*%
X93190133Y-81661295D02*
X93252990Y-81682247D01*
X93357752Y-81682247D01*
X93399657Y-81661295D01*
X93420609Y-81640342D01*
X93441561Y-81598438D01*
X93441561Y-81556533D01*
X93420609Y-81514628D01*
X93399657Y-81493676D01*
X93357752Y-81472723D01*
X93273942Y-81451771D01*
X93232038Y-81430819D01*
X93211085Y-81409866D01*
X93190133Y-81367961D01*
X93190133Y-81326057D01*
X93211085Y-81284152D01*
X93232038Y-81263200D01*
X93273942Y-81242247D01*
X93378704Y-81242247D01*
X93441561Y-81263200D01*
X93588228Y-81242247D02*
X93692990Y-81682247D01*
X93776800Y-81367961D01*
X93860609Y-81682247D01*
X93965371Y-81242247D01*
X94363466Y-81682247D02*
X94112038Y-81682247D01*
X94237752Y-81682247D02*
X94237752Y-81242247D01*
X94195847Y-81305104D01*
X94153942Y-81347009D01*
X94112038Y-81367961D01*
D10*
%TO.C,R2*%
X102085466Y-74265447D02*
X101938800Y-74055923D01*
X101834038Y-74265447D02*
X101834038Y-73825447D01*
X102001657Y-73825447D01*
X102043561Y-73846400D01*
X102064514Y-73867352D01*
X102085466Y-73909257D01*
X102085466Y-73972114D01*
X102064514Y-74014019D01*
X102043561Y-74034971D01*
X102001657Y-74055923D01*
X101834038Y-74055923D01*
X102253085Y-73867352D02*
X102274038Y-73846400D01*
X102315942Y-73825447D01*
X102420704Y-73825447D01*
X102462609Y-73846400D01*
X102483561Y-73867352D01*
X102504514Y-73909257D01*
X102504514Y-73951161D01*
X102483561Y-74014019D01*
X102232133Y-74265447D01*
X102504514Y-74265447D01*
%TO.C,R4*%
X107267066Y-71573047D02*
X107120400Y-71363523D01*
X107015638Y-71573047D02*
X107015638Y-71133047D01*
X107183257Y-71133047D01*
X107225161Y-71154000D01*
X107246114Y-71174952D01*
X107267066Y-71216857D01*
X107267066Y-71279714D01*
X107246114Y-71321619D01*
X107225161Y-71342571D01*
X107183257Y-71363523D01*
X107015638Y-71363523D01*
X107644209Y-71279714D02*
X107644209Y-71573047D01*
X107539447Y-71112095D02*
X107434685Y-71426380D01*
X107707066Y-71426380D01*
%TO.C,D2*%
X113264038Y-71522247D02*
X113264038Y-71082247D01*
X113368800Y-71082247D01*
X113431657Y-71103200D01*
X113473561Y-71145104D01*
X113494514Y-71187009D01*
X113515466Y-71270819D01*
X113515466Y-71333676D01*
X113494514Y-71417485D01*
X113473561Y-71459390D01*
X113431657Y-71501295D01*
X113368800Y-71522247D01*
X113264038Y-71522247D01*
X113683085Y-71124152D02*
X113704038Y-71103200D01*
X113745942Y-71082247D01*
X113850704Y-71082247D01*
X113892609Y-71103200D01*
X113913561Y-71124152D01*
X113934514Y-71166057D01*
X113934514Y-71207961D01*
X113913561Y-71270819D01*
X113662133Y-71522247D01*
X113934514Y-71522247D01*
X91014628Y-68999447D02*
X91287009Y-68999447D01*
X91140342Y-69167066D01*
X91203200Y-69167066D01*
X91245104Y-69188019D01*
X91266057Y-69208971D01*
X91287009Y-69250876D01*
X91287009Y-69355638D01*
X91266057Y-69397542D01*
X91245104Y-69418495D01*
X91203200Y-69439447D01*
X91077485Y-69439447D01*
X91035580Y-69418495D01*
X91014628Y-69397542D01*
X91475580Y-69397542D02*
X91496533Y-69418495D01*
X91475580Y-69439447D01*
X91454628Y-69418495D01*
X91475580Y-69397542D01*
X91475580Y-69439447D01*
X91643200Y-68999447D02*
X91915580Y-68999447D01*
X91768914Y-69167066D01*
X91831771Y-69167066D01*
X91873676Y-69188019D01*
X91894628Y-69208971D01*
X91915580Y-69250876D01*
X91915580Y-69355638D01*
X91894628Y-69397542D01*
X91873676Y-69418495D01*
X91831771Y-69439447D01*
X91706057Y-69439447D01*
X91664152Y-69418495D01*
X91643200Y-69397542D01*
X92062247Y-69146114D02*
X92167009Y-69439447D01*
X92271771Y-69146114D01*
X102216163Y-78396204D02*
X102174259Y-78375251D01*
X102111402Y-78375251D01*
X102048544Y-78396204D01*
X102006640Y-78438108D01*
X101985687Y-78480013D01*
X101964735Y-78563823D01*
X101964735Y-78626680D01*
X101985687Y-78710489D01*
X102006640Y-78752394D01*
X102048544Y-78794299D01*
X102111402Y-78815251D01*
X102153306Y-78815251D01*
X102216163Y-78794299D01*
X102237116Y-78773346D01*
X102237116Y-78626680D01*
X102153306Y-78626680D01*
X102425687Y-78815251D02*
X102425687Y-78375251D01*
X102677116Y-78815251D01*
X102677116Y-78375251D01*
X102886640Y-78815251D02*
X102886640Y-78375251D01*
X102991402Y-78375251D01*
X103054259Y-78396204D01*
X103096163Y-78438108D01*
X103117116Y-78480013D01*
X103138068Y-78563823D01*
X103138068Y-78626680D01*
X103117116Y-78710489D01*
X103096163Y-78752394D01*
X103054259Y-78794299D01*
X102991402Y-78815251D01*
X102886640Y-78815251D01*
X102229961Y-78418400D02*
X102188057Y-78397447D01*
X102125200Y-78397447D01*
X102062342Y-78418400D01*
X102020438Y-78460304D01*
X101999485Y-78502209D01*
X101978533Y-78586019D01*
X101978533Y-78648876D01*
X101999485Y-78732685D01*
X102020438Y-78774590D01*
X102062342Y-78816495D01*
X102125200Y-78837447D01*
X102167104Y-78837447D01*
X102229961Y-78816495D01*
X102250914Y-78795542D01*
X102250914Y-78648876D01*
X102167104Y-78648876D01*
X102439485Y-78837447D02*
X102439485Y-78397447D01*
X102690914Y-78837447D01*
X102690914Y-78397447D01*
X102900438Y-78837447D02*
X102900438Y-78397447D01*
X103005200Y-78397447D01*
X103068057Y-78418400D01*
X103109961Y-78460304D01*
X103130914Y-78502209D01*
X103151866Y-78586019D01*
X103151866Y-78648876D01*
X103130914Y-78732685D01*
X103109961Y-78774590D01*
X103068057Y-78816495D01*
X103005200Y-78837447D01*
X102900438Y-78837447D01*
%TO.C,R1*%
X98580266Y-71725447D02*
X98433600Y-71515923D01*
X98328838Y-71725447D02*
X98328838Y-71285447D01*
X98496457Y-71285447D01*
X98538361Y-71306400D01*
X98559314Y-71327352D01*
X98580266Y-71369257D01*
X98580266Y-71432114D01*
X98559314Y-71474019D01*
X98538361Y-71494971D01*
X98496457Y-71515923D01*
X98328838Y-71515923D01*
X98999314Y-71725447D02*
X98747885Y-71725447D01*
X98873600Y-71725447D02*
X98873600Y-71285447D01*
X98831695Y-71348304D01*
X98789790Y-71390209D01*
X98747885Y-71411161D01*
D13*
%TO.C,U1*%
X103114800Y-78121200D02*
X103114800Y-80781200D01*
X110794800Y-80781200D02*
X103114800Y-80781200D01*
X110794800Y-78121200D02*
X103114800Y-78121200D01*
X110794800Y-78121200D02*
X110794800Y-80781200D01*
X113394800Y-78121200D02*
X113394800Y-79451200D01*
X112064800Y-78121200D02*
X113394800Y-78121200D01*
%TO.C,R3*%
X107216836Y-74601400D02*
X107670964Y-74601400D01*
X107216836Y-76071400D02*
X107670964Y-76071400D01*
%TO.C,D1*%
X109909000Y-76296400D02*
X112769000Y-76296400D01*
X109909000Y-74376400D02*
X109909000Y-76296400D01*
X112769000Y-74376400D02*
X109909000Y-74376400D01*
%TO.C,J1*%
X95090000Y-67919600D02*
X92490000Y-67919600D01*
X95090000Y-70519600D02*
X112930000Y-70519600D01*
X92490000Y-65319600D02*
X112930000Y-65319600D01*
X95090000Y-70519600D02*
X95090000Y-67919600D01*
X92490000Y-67919600D02*
X92490000Y-65319600D01*
X112930000Y-70519600D02*
X112930000Y-65319600D01*
X93820000Y-70519600D02*
X92490000Y-70519600D01*
X92490000Y-70519600D02*
X92490000Y-69189600D01*
%TO.C,SW1*%
X93255200Y-81213200D02*
X97755200Y-81213200D01*
X92005200Y-77213200D02*
X92005200Y-78713200D01*
X99005200Y-78713200D02*
X99005200Y-77213200D01*
X97755200Y-74713200D02*
X93255200Y-74713200D01*
%TO.C,R2*%
X103503464Y-72010600D02*
X103049336Y-72010600D01*
X103503464Y-73480600D02*
X103049336Y-73480600D01*
%TO.C,R4*%
X107418136Y-71959800D02*
X107872264Y-71959800D01*
X107418136Y-73429800D02*
X107872264Y-73429800D01*
%TO.C,D2*%
X112769000Y-71684000D02*
X109909000Y-71684000D01*
X109909000Y-73604000D02*
X112769000Y-73604000D01*
X109909000Y-71684000D02*
X109909000Y-73604000D01*
%TO.C,R1*%
X98324936Y-72061400D02*
X98779064Y-72061400D01*
X98324936Y-73531400D02*
X98779064Y-73531400D01*
%TD*%
M02*
