M48
; DRILL file {KiCad 6.0.6} date Wed 07 Sep 2022 06:25:01 PM WAT
; FORMAT={-:-/ absolute / inch / decimal}
; #@! TF.CreationDate,2022-09-07T18:25:01+01:00
; #@! TF.GenerationSoftware,Kicad,Pcbnew,6.0.6
; #@! TF.FileFunction,Plated,1,2,PTH
FMAT,2
INCH
; #@! TA.AperFunction,Plated,PTH,ViaDrill
T1C0.0157
; #@! TA.AperFunction,Plated,PTH,ComponentDrill
T2C0.0394
; #@! TA.AperFunction,Plated,PTH,ComponentDrill
T3C0.0433
%
G90
G05
T1
X4.142Y-2.684
X4.32Y-2.908
T2
X3.6937Y-2.624
X3.6937Y-2.724
X3.7937Y-2.624
X3.7937Y-2.724
X3.8937Y-2.624
X3.8937Y-2.724
X3.9937Y-2.624
X3.9937Y-2.724
X4.0937Y-2.624
X4.0937Y-2.724
X4.112Y-3.128
X4.1937Y-2.624
X4.1937Y-2.724
X4.212Y-3.128
X4.2937Y-2.624
X4.2937Y-2.724
X4.312Y-3.128
X4.3937Y-2.624
X4.3937Y-2.724
X4.412Y-3.128
T3
X3.6321Y-2.9808
X3.6321Y-3.158
X3.888Y-2.9808
X3.888Y-3.158
T0
M30
