%TF.GenerationSoftware,KiCad,Pcbnew,6.0.6*%
%TF.CreationDate,2022-09-07T18:25:10+01:00*%
%TF.ProjectId,Raspberry PI HAT,52617370-6265-4727-9279-205049204841,rev?*%
%TF.SameCoordinates,Original*%
%TF.FileFunction,Legend,Bot*%
%TF.FilePolarity,Positive*%
%FSLAX46Y46*%
G04 Gerber Fmt 4.6, Leading zero omitted, Abs format (unit mm)*
G04 Created by KiCad (PCBNEW 6.0.6) date 2022-09-07 18:25:10*
%MOMM*%
%LPD*%
G01*
G04 APERTURE LIST*
%ADD10C,0.110000*%
%ADD11C,0.150000*%
G04 APERTURE END LIST*
D10*
X97258138Y-77518047D02*
X97258138Y-77078047D01*
X97153376Y-77078047D01*
X97090519Y-77099000D01*
X97048614Y-77140904D01*
X97027661Y-77182809D01*
X97006709Y-77266619D01*
X97006709Y-77329476D01*
X97027661Y-77413285D01*
X97048614Y-77455190D01*
X97090519Y-77497095D01*
X97153376Y-77518047D01*
X97258138Y-77518047D01*
X96650519Y-77497095D02*
X96692423Y-77518047D01*
X96776233Y-77518047D01*
X96818138Y-77497095D01*
X96839090Y-77455190D01*
X96839090Y-77287571D01*
X96818138Y-77245666D01*
X96776233Y-77224714D01*
X96692423Y-77224714D01*
X96650519Y-77245666D01*
X96629566Y-77287571D01*
X96629566Y-77329476D01*
X96839090Y-77371380D01*
X96461947Y-77497095D02*
X96420042Y-77518047D01*
X96336233Y-77518047D01*
X96294328Y-77497095D01*
X96273376Y-77455190D01*
X96273376Y-77434238D01*
X96294328Y-77392333D01*
X96336233Y-77371380D01*
X96399090Y-77371380D01*
X96440995Y-77350428D01*
X96461947Y-77308523D01*
X96461947Y-77287571D01*
X96440995Y-77245666D01*
X96399090Y-77224714D01*
X96336233Y-77224714D01*
X96294328Y-77245666D01*
X96084804Y-77518047D02*
X96084804Y-77224714D01*
X96084804Y-77078047D02*
X96105757Y-77099000D01*
X96084804Y-77119952D01*
X96063852Y-77099000D01*
X96084804Y-77078047D01*
X96084804Y-77119952D01*
X95686709Y-77224714D02*
X95686709Y-77580904D01*
X95707661Y-77622809D01*
X95728614Y-77643761D01*
X95770519Y-77664714D01*
X95833376Y-77664714D01*
X95875280Y-77643761D01*
X95686709Y-77497095D02*
X95728614Y-77518047D01*
X95812423Y-77518047D01*
X95854328Y-77497095D01*
X95875280Y-77476142D01*
X95896233Y-77434238D01*
X95896233Y-77308523D01*
X95875280Y-77266619D01*
X95854328Y-77245666D01*
X95812423Y-77224714D01*
X95728614Y-77224714D01*
X95686709Y-77245666D01*
X95477185Y-77224714D02*
X95477185Y-77518047D01*
X95477185Y-77266619D02*
X95456233Y-77245666D01*
X95414328Y-77224714D01*
X95351471Y-77224714D01*
X95309566Y-77245666D01*
X95288614Y-77287571D01*
X95288614Y-77518047D01*
X94911471Y-77497095D02*
X94953376Y-77518047D01*
X95037185Y-77518047D01*
X95079090Y-77497095D01*
X95100042Y-77455190D01*
X95100042Y-77287571D01*
X95079090Y-77245666D01*
X95037185Y-77224714D01*
X94953376Y-77224714D01*
X94911471Y-77245666D01*
X94890519Y-77287571D01*
X94890519Y-77329476D01*
X95100042Y-77371380D01*
X94513376Y-77518047D02*
X94513376Y-77078047D01*
X94513376Y-77497095D02*
X94555280Y-77518047D01*
X94639090Y-77518047D01*
X94680995Y-77497095D01*
X94701947Y-77476142D01*
X94722900Y-77434238D01*
X94722900Y-77308523D01*
X94701947Y-77266619D01*
X94680995Y-77245666D01*
X94639090Y-77224714D01*
X94555280Y-77224714D01*
X94513376Y-77245666D01*
X93968614Y-77518047D02*
X93968614Y-77078047D01*
X93968614Y-77245666D02*
X93926709Y-77224714D01*
X93842900Y-77224714D01*
X93800995Y-77245666D01*
X93780042Y-77266619D01*
X93759090Y-77308523D01*
X93759090Y-77434238D01*
X93780042Y-77476142D01*
X93800995Y-77497095D01*
X93842900Y-77518047D01*
X93926709Y-77518047D01*
X93968614Y-77497095D01*
X93612423Y-77224714D02*
X93507661Y-77518047D01*
X93402900Y-77224714D02*
X93507661Y-77518047D01*
X93549566Y-77622809D01*
X93570519Y-77643761D01*
X93612423Y-77664714D01*
X97111471Y-77995971D02*
X97048614Y-78016923D01*
X97027661Y-78037876D01*
X97006709Y-78079780D01*
X97006709Y-78142638D01*
X97027661Y-78184542D01*
X97048614Y-78205495D01*
X97090519Y-78226447D01*
X97258138Y-78226447D01*
X97258138Y-77786447D01*
X97111471Y-77786447D01*
X97069566Y-77807400D01*
X97048614Y-77828352D01*
X97027661Y-77870257D01*
X97027661Y-77912161D01*
X97048614Y-77954066D01*
X97069566Y-77975019D01*
X97111471Y-77995971D01*
X97258138Y-77995971D01*
X96650519Y-78205495D02*
X96692423Y-78226447D01*
X96776233Y-78226447D01*
X96818138Y-78205495D01*
X96839090Y-78163590D01*
X96839090Y-77995971D01*
X96818138Y-77954066D01*
X96776233Y-77933114D01*
X96692423Y-77933114D01*
X96650519Y-77954066D01*
X96629566Y-77995971D01*
X96629566Y-78037876D01*
X96839090Y-78079780D01*
X96440995Y-78226447D02*
X96440995Y-77933114D01*
X96440995Y-78016923D02*
X96420042Y-77975019D01*
X96399090Y-77954066D01*
X96357185Y-77933114D01*
X96315280Y-77933114D01*
X96168614Y-77933114D02*
X96168614Y-78226447D01*
X96168614Y-77975019D02*
X96147661Y-77954066D01*
X96105757Y-77933114D01*
X96042900Y-77933114D01*
X96000995Y-77954066D01*
X95980042Y-77995971D01*
X95980042Y-78226447D01*
X95581947Y-78226447D02*
X95581947Y-77995971D01*
X95602900Y-77954066D01*
X95644804Y-77933114D01*
X95728614Y-77933114D01*
X95770519Y-77954066D01*
X95581947Y-78205495D02*
X95623852Y-78226447D01*
X95728614Y-78226447D01*
X95770519Y-78205495D01*
X95791471Y-78163590D01*
X95791471Y-78121685D01*
X95770519Y-78079780D01*
X95728614Y-78058828D01*
X95623852Y-78058828D01*
X95581947Y-78037876D01*
X95372423Y-78226447D02*
X95372423Y-77933114D01*
X95372423Y-78016923D02*
X95351471Y-77975019D01*
X95330519Y-77954066D01*
X95288614Y-77933114D01*
X95246709Y-77933114D01*
X94911471Y-78226447D02*
X94911471Y-77786447D01*
X94911471Y-78205495D02*
X94953376Y-78226447D01*
X95037185Y-78226447D01*
X95079090Y-78205495D01*
X95100042Y-78184542D01*
X95120995Y-78142638D01*
X95120995Y-78016923D01*
X95100042Y-77975019D01*
X95079090Y-77954066D01*
X95037185Y-77933114D01*
X94953376Y-77933114D01*
X94911471Y-77954066D01*
X94240995Y-77786447D02*
X94240995Y-78100733D01*
X94261947Y-78163590D01*
X94303852Y-78205495D01*
X94366709Y-78226447D01*
X94408614Y-78226447D01*
X93968614Y-78226447D02*
X94010519Y-78205495D01*
X94031471Y-78184542D01*
X94052423Y-78142638D01*
X94052423Y-78016923D01*
X94031471Y-77975019D01*
X94010519Y-77954066D01*
X93968614Y-77933114D01*
X93905757Y-77933114D01*
X93863852Y-77954066D01*
X93842900Y-77975019D01*
X93821947Y-78016923D01*
X93821947Y-78142638D01*
X93842900Y-78184542D01*
X93863852Y-78205495D01*
X93905757Y-78226447D01*
X93968614Y-78226447D01*
X93654328Y-78205495D02*
X93612423Y-78226447D01*
X93528614Y-78226447D01*
X93486709Y-78205495D01*
X93465757Y-78163590D01*
X93465757Y-78142638D01*
X93486709Y-78100733D01*
X93528614Y-78079780D01*
X93591471Y-78079780D01*
X93633376Y-78058828D01*
X93654328Y-78016923D01*
X93654328Y-77995971D01*
X93633376Y-77954066D01*
X93591471Y-77933114D01*
X93528614Y-77933114D01*
X93486709Y-77954066D01*
X93109566Y-78205495D02*
X93151471Y-78226447D01*
X93235280Y-78226447D01*
X93277185Y-78205495D01*
X93298138Y-78163590D01*
X93298138Y-77995971D01*
X93277185Y-77954066D01*
X93235280Y-77933114D01*
X93151471Y-77933114D01*
X93109566Y-77954066D01*
X93088614Y-77995971D01*
X93088614Y-78037876D01*
X93298138Y-78079780D01*
X92900042Y-77933114D02*
X92900042Y-78373114D01*
X92900042Y-77954066D02*
X92858138Y-77933114D01*
X92774328Y-77933114D01*
X92732423Y-77954066D01*
X92711471Y-77975019D01*
X92690519Y-78016923D01*
X92690519Y-78142638D01*
X92711471Y-78184542D01*
X92732423Y-78205495D01*
X92774328Y-78226447D01*
X92858138Y-78226447D01*
X92900042Y-78205495D01*
X92501947Y-78226447D02*
X92501947Y-77786447D01*
X92313376Y-78226447D02*
X92313376Y-77995971D01*
X92334328Y-77954066D01*
X92376233Y-77933114D01*
X92439090Y-77933114D01*
X92480995Y-77954066D01*
X92501947Y-77975019D01*
D11*
X96648342Y-71721228D02*
X96848342Y-71435514D01*
X96991200Y-71721228D02*
X96991200Y-71121228D01*
X96762628Y-71121228D01*
X96705485Y-71149800D01*
X96676914Y-71178371D01*
X96648342Y-71235514D01*
X96648342Y-71321228D01*
X96676914Y-71378371D01*
X96705485Y-71406942D01*
X96762628Y-71435514D01*
X96991200Y-71435514D01*
X96134057Y-71721228D02*
X96134057Y-71406942D01*
X96162628Y-71349800D01*
X96219771Y-71321228D01*
X96334057Y-71321228D01*
X96391200Y-71349800D01*
X96134057Y-71692657D02*
X96191200Y-71721228D01*
X96334057Y-71721228D01*
X96391200Y-71692657D01*
X96419771Y-71635514D01*
X96419771Y-71578371D01*
X96391200Y-71521228D01*
X96334057Y-71492657D01*
X96191200Y-71492657D01*
X96134057Y-71464085D01*
X95876914Y-71692657D02*
X95819771Y-71721228D01*
X95705485Y-71721228D01*
X95648342Y-71692657D01*
X95619771Y-71635514D01*
X95619771Y-71606942D01*
X95648342Y-71549800D01*
X95705485Y-71521228D01*
X95791200Y-71521228D01*
X95848342Y-71492657D01*
X95876914Y-71435514D01*
X95876914Y-71406942D01*
X95848342Y-71349800D01*
X95791200Y-71321228D01*
X95705485Y-71321228D01*
X95648342Y-71349800D01*
X95362628Y-71321228D02*
X95362628Y-71921228D01*
X95362628Y-71349800D02*
X95305485Y-71321228D01*
X95191200Y-71321228D01*
X95134057Y-71349800D01*
X95105485Y-71378371D01*
X95076914Y-71435514D01*
X95076914Y-71606942D01*
X95105485Y-71664085D01*
X95134057Y-71692657D01*
X95191200Y-71721228D01*
X95305485Y-71721228D01*
X95362628Y-71692657D01*
X94819771Y-71721228D02*
X94819771Y-71121228D01*
X94819771Y-71349800D02*
X94762628Y-71321228D01*
X94648342Y-71321228D01*
X94591200Y-71349800D01*
X94562628Y-71378371D01*
X94534057Y-71435514D01*
X94534057Y-71606942D01*
X94562628Y-71664085D01*
X94591200Y-71692657D01*
X94648342Y-71721228D01*
X94762628Y-71721228D01*
X94819771Y-71692657D01*
X94048342Y-71692657D02*
X94105485Y-71721228D01*
X94219771Y-71721228D01*
X94276914Y-71692657D01*
X94305485Y-71635514D01*
X94305485Y-71406942D01*
X94276914Y-71349800D01*
X94219771Y-71321228D01*
X94105485Y-71321228D01*
X94048342Y-71349800D01*
X94019771Y-71406942D01*
X94019771Y-71464085D01*
X94305485Y-71521228D01*
X93762628Y-71721228D02*
X93762628Y-71321228D01*
X93762628Y-71435514D02*
X93734057Y-71378371D01*
X93705485Y-71349800D01*
X93648342Y-71321228D01*
X93591200Y-71321228D01*
X93391200Y-71721228D02*
X93391200Y-71321228D01*
X93391200Y-71435514D02*
X93362628Y-71378371D01*
X93334057Y-71349800D01*
X93276914Y-71321228D01*
X93219771Y-71321228D01*
X93076914Y-71321228D02*
X92934057Y-71721228D01*
X92791200Y-71321228D02*
X92934057Y-71721228D01*
X92991200Y-71864085D01*
X93019771Y-71892657D01*
X93076914Y-71921228D01*
X96019771Y-72687228D02*
X96019771Y-72087228D01*
X95791200Y-72087228D01*
X95734057Y-72115800D01*
X95705485Y-72144371D01*
X95676914Y-72201514D01*
X95676914Y-72287228D01*
X95705485Y-72344371D01*
X95734057Y-72372942D01*
X95791200Y-72401514D01*
X96019771Y-72401514D01*
X95419771Y-72687228D02*
X95419771Y-72087228D01*
X94676914Y-72687228D02*
X94676914Y-72087228D01*
X94676914Y-72372942D02*
X94334057Y-72372942D01*
X94334057Y-72687228D02*
X94334057Y-72087228D01*
X94076914Y-72515800D02*
X93791200Y-72515800D01*
X94134057Y-72687228D02*
X93934057Y-72087228D01*
X93734057Y-72687228D01*
X93619771Y-72087228D02*
X93276914Y-72087228D01*
X93448342Y-72687228D02*
X93448342Y-72087228D01*
D10*
%TO.C,D2*%
X98176038Y-65464400D02*
X98217942Y-65443447D01*
X98280800Y-65443447D01*
X98343657Y-65464400D01*
X98385561Y-65506304D01*
X98406514Y-65548209D01*
X98427466Y-65632019D01*
X98427466Y-65694876D01*
X98406514Y-65778685D01*
X98385561Y-65820590D01*
X98343657Y-65862495D01*
X98280800Y-65883447D01*
X98238895Y-65883447D01*
X98176038Y-65862495D01*
X98155085Y-65841542D01*
X98155085Y-65694876D01*
X98238895Y-65694876D01*
X97966514Y-65883447D02*
X97966514Y-65443447D01*
X97715085Y-65883447D01*
X97715085Y-65443447D01*
X97505561Y-65883447D02*
X97505561Y-65443447D01*
X97400800Y-65443447D01*
X97337942Y-65464400D01*
X97296038Y-65506304D01*
X97275085Y-65548209D01*
X97254133Y-65632019D01*
X97254133Y-65694876D01*
X97275085Y-65778685D01*
X97296038Y-65820590D01*
X97337942Y-65862495D01*
X97400800Y-65883447D01*
X97505561Y-65883447D01*
X104983238Y-69985600D02*
X105025142Y-69964647D01*
X105088000Y-69964647D01*
X105150857Y-69985600D01*
X105192761Y-70027504D01*
X105213714Y-70069409D01*
X105234666Y-70153219D01*
X105234666Y-70216076D01*
X105213714Y-70299885D01*
X105192761Y-70341790D01*
X105150857Y-70383695D01*
X105088000Y-70404647D01*
X105046095Y-70404647D01*
X104983238Y-70383695D01*
X104962285Y-70362742D01*
X104962285Y-70216076D01*
X105046095Y-70216076D01*
X104773714Y-70404647D02*
X104773714Y-69964647D01*
X104522285Y-70404647D01*
X104522285Y-69964647D01*
X104312761Y-70404647D02*
X104312761Y-69964647D01*
X104208000Y-69964647D01*
X104145142Y-69985600D01*
X104103238Y-70027504D01*
X104082285Y-70069409D01*
X104061333Y-70153219D01*
X104061333Y-70216076D01*
X104082285Y-70299885D01*
X104103238Y-70341790D01*
X104145142Y-70383695D01*
X104208000Y-70404647D01*
X104312761Y-70404647D01*
%TD*%
M02*
